PathFileType	4	(X/Y/Z)	C:\Users\°ÂÌØÂü\Desktop\20210112\bx_y_5_902-Unnamed.trc
DataRate	CameraRate	NumFrames	NumMarkers	Units	OrigDataRate	OrigDataStartFrame	OrigNumFrames
50.00	50.00	       9	0	mm	50.00	66	       525
Frame#	Time	
		

66	1.300	-621.41357	143.19991	1848.94031	-706.49689	302.83896	1530.36621	-597.78058	-0.08908	1046.93152	-595.78424	1.57095	800.65948	-639.79156	285.57059	871.65491	-716.00787	79.36903	215.54924	-725.75995	255.51732	637.03479	-731.81079	249.86922	574.27448	-680.00531	206.85655	532.59155	-774.42505	260.12845	502.71744	-517.82898	-72.66180	142.45097	-697.84283	145.84915	574.26709	-601.95410	19.56612	165.63571				-770.94611	223.71109	204.71111	-594.19543	222.95233	173.41147	-882.45801	295.98141	144.52785	-560.61810	262.33862	165.45016	-665.95135	299.31665	159.70169	-628.63788	307.47092	161.48051	-527.96387	304.14023	146.50595	-689.31830	-56.15767	1554.50964	-794.56219	107.80578	1044.65759	-766.46405	-3.26363	206.87303	-793.98865	57.60300	174.98059	-796.48218	173.53357	183.13637	-770.90308	-30.92280	487.98853	-664.49567	-66.39358	163.58237	-875.94830	-79.04633	141.53731	-690.53577	-45.35238	704.84503	-709.31952	-22.47495	614.30652	-724.17133	-20.38153	567.47308	-712.13440	153.10098	217.01454	-559.39490	-42.93021	162.77049	-674.72339	171.85416	157.48376	-624.39801	-77.91252	160.28505	-653.71796	-62.28364	856.81226	-602.15314	117.10131	1439.24487	-589.57800	216.88037	819.46515	-675.00220	22.98691	520.36444	-583.54346	226.24139	1063.72998				-700.34906	85.49011	572.66260	-673.57190	56.73162	156.78412	
67	1.320	-620.79382	143.25771	1848.83337	-706.49689	302.83896	1530.36621	-597.67407	-0.03026	1046.90674	-595.71985	1.42893	800.56049	-639.85724	285.48303	871.65948	-716.01807	79.27503	215.69638	-725.84393	255.73605	637.04303	-731.69611	249.48303	574.03778	-680.08008	206.79738	532.57489	-774.41962	260.16919	502.63345	-517.72174	-72.61513	142.64165	-697.77686	145.95122	574.38110	-602.00635	19.42080	165.62614				-770.70850	223.82066	204.58586	-594.11664	223.05211	173.24751	-882.52399	296.00943	144.51761	-560.57092	262.37097	165.54120	-666.06616	299.39685	159.74966	-628.54785	307.62128	161.44576	-527.88281	304.04523	146.45053	-688.96222	-56.24594	1554.49792	-794.41351	107.62083	1044.49219	-766.41406	-3.18180	207.03870	-793.95258	57.76317	174.86026	-796.45630	173.51816	183.12286	-770.85547	-31.10400	488.31155	-664.60315	-66.41911	163.65602	-875.65533	-78.94249	141.29453	-690.25153	-45.11103	704.56976	-709.38226	-22.34303	614.24127	-724.17133	-20.38153	567.47308	-712.08240	153.14691	217.10228	-559.43481	-42.88548	162.74142	-674.90784	171.75215	157.27715	-624.48645	-77.81339	160.22444	-653.40900	-62.00074	856.84357	-601.71173	117.51766	1439.59387	-589.56378	217.11081	819.44910	-674.70850	22.98712	520.39752	-583.50818	226.41763	1063.72729				-700.06500	85.31498	572.60510	-673.71429	56.72829	156.59227	
68	1.340	-620.51099	143.47383	1848.82947	-706.37610	303.04099	1530.36572	-597.60626	-0.05854	1047.10217	-595.64423	1.51556	800.62402	-639.80603	285.63068	871.57092	-715.92297	79.49007	215.59711	-725.84613	255.86691	637.22089	-731.55200	249.44012	573.98425	-679.97418	206.87524	532.47955	-774.47083	260.11395	502.73245	-517.93817	-72.69818	142.59703	-697.77686	145.95122	574.38110	-601.95410	19.56612	165.63571				-770.90778	223.72726	204.64476	-594.05969	222.88811	173.36386	-882.52338	296.20160	144.65182	-560.38849	262.50934	165.45903	-665.93188	299.37238	159.90041	-628.58893	307.56732	161.38853	-527.96216	304.28693	146.46220	-688.71692	-56.10139	1554.51819	-794.13702	107.55105	1044.46814	-766.49603	-3.25896	206.84177	-794.00061	57.69604	174.94171	-796.45630	173.51816	183.12286	-770.77240	-31.01540	488.19528	-664.57208	-66.47294	163.62981	-875.93359	-78.96604	141.13327	-690.17902	-45.12710	704.66479	-709.09796	-22.51460	614.56616	-724.05310	-20.32635	567.38763	-712.17841	152.98177	216.89795	-559.32489	-42.93690	162.81972	-674.82916	171.82013	157.20181	-624.31342	-77.64642	160.12737	-653.13995	-61.43845	856.60016	-601.71173	117.51766	1439.59387	-589.56378	217.11081	819.44910	-674.56458	23.05889	520.46796	-583.50818	226.41763	1063.72729				-699.91010	85.27949	572.75928	-673.45270	57.28045	156.65456	
69	1.360	-620.13385	143.54376	1848.72083	-706.33411	303.29114	1530.42151	-597.23132	-0.05438	1047.08105	-595.32336	1.82377	800.64038	-639.86371	285.69327	871.71204	-715.70337	79.70905	215.82561	-725.78815	255.76254	637.06549	-731.43298	249.40279	573.86646	-679.97418	206.87524	532.47955	-774.35889	259.99493	502.76465	-517.72174	-72.61513	142.64165				-601.98157	19.52717	165.57739				-770.78436	223.75916	204.65686	-594.17468	223.01733	173.32047	-882.55640	296.06802	144.49452	-560.58801	262.42068	165.49889	-665.93732	299.53796	159.67404	-628.49121	307.63599	161.45049	-528.04907	304.31696	146.34468	-688.44696	-56.07145	1554.49182	-794.19885	107.71787	1044.64282	-766.41931	-3.27723	207.20584	-793.88660	57.61945	174.71399	-796.51135	173.58595	183.17401	-770.77240	-31.01540	488.19528	-664.55554	-66.40453	163.57823	-876.15698	-79.18539	141.27307	-689.81897	-44.71830	704.42230	-709.00177	-22.57313	614.64911	-724.05310	-20.32635	567.38763	-712.08240	153.14691	217.10228	-559.39490	-42.93021	162.77049	-674.51904	171.99690	157.58092	-624.13287	-77.70229	160.05893	-652.81158	-61.54934	856.54572	-601.67010	117.60695	1439.44031	-589.26886	217.28496	819.48169	-674.56458	23.05889	520.46796	-583.56323	226.55603	1063.55322				-699.96716	85.20793	572.96503	-673.57190	56.73162	156.78412	
70	1.380	-619.98840	143.84306	1848.65186	-706.56116	303.21225	1530.27734	-596.96576	-0.15060	1047.22070	-595.18707	2.02227	800.54150	-639.76501	285.75665	871.48425	-716.06281	79.49011	215.74644	-725.62317	255.86877	637.23395	-731.38757	249.68877	574.06653	-680.00531	206.85655	532.59155	-773.99475	260.04532	502.57608	-517.87915	-72.46994	142.56189	-697.77686	145.95122	574.38110	-601.89948	19.59168	165.68410				-770.82751	223.70692	204.74733	-594.03943	222.93393	173.36700	-882.73285	296.05365	144.51848	-560.64380	262.40250	165.40950	-666.02905	299.48730	159.64355	-628.51312	307.71576	161.55487	-527.99841	304.00455	146.44089	-688.26324	-55.91983	1554.59338	-794.13983	107.62886	1044.62354	-766.39587	-3.13637	206.99342	-793.81012	57.86300	174.64102	-796.45630	173.51816	183.12286	-770.78925	-30.98181	488.19095	-664.43921	-66.45812	163.65694	-875.64880	-79.04969	141.18465	-689.75055	-44.92500	704.57739	-708.63928	-22.64240	614.72192	-723.94299	-20.23590	567.35193	-711.96600	152.86147	216.88329	-559.36481	-42.89216	162.79066	-674.73145	171.95753	157.54042	-624.32397	-77.76336	160.28534	-652.27295	-61.27615	856.56311	-601.41028	117.88401	1439.13708	-589.12488	217.43594	819.51343	-674.56458	23.05889	520.46796	-583.60248	226.89534	1063.53394				-699.90625	85.38158	572.70483	-673.57190	56.73162	156.78412	
71	1.400	-620.10150	143.95625	1848.62781	-706.71515	303.25937	1530.19617	-596.70306	0.21516	1047.19885	-595.05164	2.11594	800.35553	-639.84790	286.10837	871.64941	-716.07300	79.39612	215.89357	-725.53473	255.83589	637.18152	-731.31036	249.51665	573.92950	-679.82635	206.82716	532.52777	-774.16852	260.20923	502.71527	-517.66736	-72.72713	142.77681	-697.73761	146.06033	574.47620	-601.99493	19.55509	165.74350				-770.83789	223.77423	204.65646	-594.02106	222.92519	173.44209	-882.66113	295.90656	144.40219	-560.70886	262.36182	165.47627	-665.99695	299.55597	159.80055	-628.66992	307.54153	161.31129	-528.11237	304.24997	146.26134	-688.23273	-55.81165	1554.58911	-793.96881	107.74033	1044.35168	-766.32874	-3.27255	207.02316	-793.88660	57.61945	174.71399	-796.43408	173.56146	183.18443	-770.68274	-31.16310	488.24591	-664.50500	-66.43678	163.62726	-875.64880	-79.04969	141.18465	-689.42535	-45.08813	704.73615	-708.64575	-22.61232	614.74689	-723.79187	-20.07606	566.99658	-712.03076	152.97226	217.04817	-559.29742	-42.83749	162.87317	-674.98383	171.73695	157.42053	-624.22449	-77.68972	160.17950	-652.06805	-61.00971	856.14203	-601.65363	117.88051	1439.08899	-589.19867	217.58540	819.28033	-674.56458	23.05889	520.46796	-583.36530	227.14345	1063.53259				-699.91010	85.27949	572.75928	-673.61407	56.85276	156.68301	
72	1.420	-620.35065	143.92349	1848.67126	-706.82483	303.20721	1530.14917	-596.69214	0.32582	1047.12964	-594.72174	2.15943	800.33240	-639.69421	286.02921	871.77075	-715.73376	79.48602	215.53778	-725.52179	255.86238	637.27429	-731.33575	249.81825	574.42584	-679.79529	206.84584	532.41577	-774.16071	260.05527	502.65698	-517.66736	-72.72713	142.77681				-601.93451	19.52248	165.55994				-770.76385	223.73746	204.63548	-594.02106	222.92519	173.44209	-882.51721	295.96179	144.49458	-560.61810	262.33862	165.45016	-665.93744	299.39417	159.65477	-628.65063	307.55127	161.38338	-527.96216	304.28693	146.46220	-688.21185	-55.73428	1554.60938	-793.99255	107.66978	1044.43201	-766.42279	-3.11875	207.07422	-793.98309	57.68138	174.92386	-796.45630	173.51816	183.12286	-770.53113	-31.10578	488.49338	-664.50500	-66.43678	163.62726	-876.20258	-79.09181	141.36234	-689.39099	-44.86229	704.68774	-708.72620	-22.55627	614.68591	-723.53967	-20.03836	567.17096	-712.03381	152.99213	216.92946	-559.39490	-42.93021	162.77049	-674.58118	171.85716	157.52016	-624.28448	-77.76304	160.29842	-651.84692	-61.27430	856.29181	-601.49207	117.98055	1439.17615	-589.12592	217.50296	819.37646	-674.56458	23.05889	520.46796	-583.19568	226.97224	1063.63147				-700.10992	85.50386	572.61591	-673.71429	56.72829	156.59227	
73	1.440	-620.76477	143.88155	1848.75391	-706.81726	303.27139	1530.14990	-596.60828	0.18901	1047.00964	-594.42065	2.15715	800.31580	-639.51361	286.09164	871.72888	-715.99500	79.72108	215.74455	-725.54901	255.97760	637.34412	-731.24585	249.56923	574.05066	-679.82635	206.82716	532.52777	-774.22034	260.21249	502.70044	-517.77454	-72.77385	142.58614				-602.00635	19.42080	165.62614				-770.85120	223.79897	204.74117	-594.03705	222.98503	173.27719	-882.58643	296.20279	144.70938	-560.61810	262.33862	165.45016	-665.89636	299.42865	159.73396	-628.54785	307.62128	161.44576	-528.05737	304.22806	146.37032	-688.27264	-55.81557	1554.51660	-793.66132	107.67830	1044.34460	-766.30530	-3.25586	207.17178	-793.88556	57.71522	174.82503	-796.37775	173.49602	183.13664	-770.77454	-31.25542	488.57724	-664.57208	-66.47294	163.62981	-875.93359	-78.96604	141.13327	-689.29926	-44.92751	704.53009	-708.53491	-22.59789	614.61359	-723.69897	-19.97814	566.99078	-711.98926	153.09941	217.16879	-559.43481	-42.88548	162.74142	-674.78558	171.71442	157.42299	-624.24536	-77.74897	160.26468	-651.84692	-61.27430	856.29181	-601.45233	117.80971	1439.22070	-589.19867	217.58540	819.28033	-674.56458	23.05889	520.46796	-583.09729	227.16953	1063.44312				-699.90625	85.38158	572.70483	-673.71429	56.72829	156.59227	
74	1.460	-621.23468	143.92793	1848.82068	-706.93323	303.05017	1530.13013	-596.54285	0.20788	1047.11121	-594.21204	2.21954	800.41699	-639.65131	286.02222	871.63715	-715.83618	79.49401	215.39742	-725.22583	255.85513	637.16992	-731.13947	249.60883	574.17114	-679.79529	206.84584	532.41577	-773.99475	260.04532	502.57608	-517.77618	-72.50307	142.50648	-697.54108	146.08276	574.28906	-601.98157	19.52717	165.57739				-770.85382	223.76561	204.52112	-594.02338	222.87538	173.21680	-882.52216	296.14877	144.70222	-560.58801	262.42068	165.49889	-665.93683	299.44043	159.59790	-628.51312	307.71576	161.55487	-528.08600	304.15735	146.47820	-688.24115	-55.85737	1554.51624	-793.60730	107.62417	1044.38013	-766.45422	-3.38865	206.99431	-794.06061	57.52671	174.83304	-796.51135	173.58595	183.17401	-770.40863	-30.57329	488.40228	-664.60315	-66.41911	163.65602	-875.98938	-78.90066	141.15312	-689.07281	-44.65763	704.49664	-708.56879	-22.61758	614.53705	-723.61212	-20.09197	567.12225	-712.03424	153.03833	216.95757	-559.38257	-42.84484	162.83429	-674.84570	171.89189	157.33792	-624.42822	-77.72903	160.13991	-651.75732	-61.28671	856.18030	-601.44220	117.94346	1439.17725	-589.19763	217.51839	819.41730	-674.60370	23.15794	520.31842	-583.10944	226.99593	1063.72864				-699.90625	85.38158	572.70483	-673.85376	56.66035	156.64229	
